HIERARCHY
ROOT Hips
{
  OFFSET 0 0 0
  CHANNELS 6 Xposition Yposition Zposition Zrotation Yrotation Xrotation
  JOINT LeftThigh
  {
    OFFSET 8.409438 0 -5.917753
    CHANNELS 3 Zrotation Yrotation Xrotation
    JOINT LeftLeg
    {
      OFFSET 0 0 -42.358652
      CHANNELS 3 Zrotation Yrotation Xrotation
      JOINT LeftFoot
      {
        OFFSET 0 0 -39.357303
        CHANNELS 3 Zrotation Yrotation Xrotation
      }
    }
  }
  JOINT RightThigh
  {
    OFFSET -8.409438 0 -5.917753
    CHANNELS 3 Zrotation Yrotation Xrotation
    JOINT RightLeg
    {
      OFFSET 0 0 -42.358652
      CHANNELS 3 Zrotation Yrotation Xrotation
      JOINT RightFoot
      {
        OFFSET 0 0 -39.357303
        CHANNELS 3 Zrotation Yrotation Xrotation
      }
    }
  }
  JOINT SpineLow
  {
    OFFSET 0 0 4.719101
    CHANNELS 3 Zrotation Yrotation Xrotation
    JOINT SpineMid
    {
      OFFSET 0 0 12.899191
      CHANNELS 3 Zrotation Yrotation Xrotation
      JOINT Chest
      {
        OFFSET 0 0 12.899191
        CHANNELS 3 Zrotation Yrotation Xrotation
        JOINT LeftShoulder
        {
          OFFSET 7.550562 1.41573 9.438202
          CHANNELS 3 Zrotation Yrotation Xrotation
          JOINT LeftArm
          {
            OFFSET 9.155056 0 4.247191
            CHANNELS 3 Zrotation Yrotation Xrotation
            JOINT LeftForearm
            {
              OFFSET 0 0 25.771955
              CHANNELS 3 Zrotation Yrotation Xrotation
              JOINT LeftHand
              {
                OFFSET 0 0 25.197169
                CHANNELS 3 Zrotation Yrotation Xrotation
              }
            }
          }
        }
        JOINT RightShoulder
        {
          OFFSET -7.550562 1.41573 9.438202
          CHANNELS 3 Zrotation Yrotation Xrotation
          JOINT RightArm
          {
            OFFSET -9.155056 0 4.247191
            CHANNELS 3 Zrotation Yrotation Xrotation
            JOINT RightForearm
            {
              OFFSET 0 0 -25.771955
              CHANNELS 3 Zrotation Yrotation Xrotation
              JOINT RightHand
              {
                OFFSET 0 0 -25.197169
                CHANNELS 3 Zrotation Yrotation Xrotation
              }
            }
          }
        }
        JOINT Neck
        {
          OFFSET 0 0 15.101124
          CHANNELS 3 Zrotation Yrotation Xrotation
          JOINT Head
          {
            OFFSET 0 0 11.325843
            CHANNELS 3 Zrotation Yrotation Xrotation
            End Site
            {
              OFFSET 0 0 14.157303
            }
          }
        }
      }
    }
  }
}
MOTION
Frames: 13
Frame Time: 0.0
0.0  89.887642  0.0  3.565614  -13.783249  -96.796978  15.823558  -11.978835  1.987121  -3.043008  5.436655  24.140842  5.737127  2.138465  2.866652  -0.942127  13.084086  -5.775096  -1.083477  5.568157  15.362839  3.874418  0.491963  0.45067  0.616948  0.160465  0.553812  1.689961  0.42443  1.517789  1.689961  0.42443  1.517789  -4.140033  24.301722  5.254721  137.299032  39.708745  -171.120665  -12.335315  -5.242173  22.44735  89.114776  -4.433759  2.932447  -2.233425  1.141277  21.645546  58.964559  30.012425  22.536941  21.64727  14.70177  -42.438998  102.913985  -2.903309  -16.935418  -7.098668  1.252636  -1.560681  -5.320631  0.957766  -1.156097  
0.0  89.887642  0.0  3.573447  -14.002274  -96.906944  15.936916  -12.023135  2.089723  -2.999706  5.423485  24.160131  5.746088  2.14752  2.860254  -0.987117  13.046049  -5.829129  -0.919897  5.558102  15.446647  3.933648  0.502138  0.472462  0.613498  0.161756  0.550237  1.680536  0.428127  1.508029  1.680536  0.428127  1.508029  -4.161169  24.443789  5.421093  138.171976  39.521159  -170.774236  -11.816671  -5.353256  22.644042  89.072048  -4.415116  2.984975  -2.077078  0.949601  21.772911  59.833763  30.313231  23.211503  21.527724  15.143309  -42.563621  102.837003  -2.646917  -17.054932  -7.101277  1.221235  -1.566474  -5.322668  0.934285  -1.160804  
0.0  89.887642  0.0  3.584128  -14.230068  -97.015932  16.091096  -12.067587  2.243328  -2.946994  5.380354  24.155794  5.735651  2.142582  2.837478  -0.892714  13.00823  -5.840673  -0.730287  5.529197  15.549916  3.935895  0.511679  0.490744  0.627321  0.165882  0.548858  1.718406  0.439125  1.504456  1.718406  0.439125  1.504456  -4.201091  24.484371  5.510373  139.1196  39.208054  -170.349222  -11.192096  -5.575423  23.032439  89.06093  -4.418331  3.012441  -2.041878  0.798883  21.890465  60.658131  30.470974  23.777388  21.258658  15.545862  -42.859745  102.729931  -2.365834  -17.304712  -7.069795  1.200971  -1.560963  -5.299127  0.918939  -1.156968  
0.0  89.887642  0.0  3.626196  -14.505229  -97.144177  16.152021  -12.041538  2.366181  -2.606137  5.316441  24.324545  5.67324  2.088532  2.758377  -0.834311  12.987665  -5.884076  -0.362573  5.503454  15.698525  3.864534  0.488467  0.497296  0.661032  0.179592  0.557985  1.810927  0.475574  1.529999  1.810927  0.475574  1.529999  -4.060497  24.381842  5.654855  139.730261  38.836627  -170.019574  -10.684583  -5.860888  23.620985  89.043074  -4.437313  2.940497  -2.134552  0.724288  21.956492  61.477452  30.398099  24.237757  20.817875  16.068147  -43.286739  102.532496  -2.078607  -17.65831  -7.214971  1.149843  -1.654109  -5.407982  0.882064  -1.227166  
0.0  89.887642  0.0  3.642832  -14.811986  -97.279226  16.330987  -12.094387  2.566067  -2.394357  5.236121  24.329902  5.632114  2.072113  2.735989  -0.640517  12.952146  -5.872067  -0.208985  5.477074  15.815358  3.866637  0.488612  0.511223  0.683493  0.191982  0.573914  1.872727  0.508464  1.574047  1.872727  0.508464  1.574048  -3.867899  24.165613  5.73964  140.209463  38.248816  -169.772807  -10.481058  -6.300415  24.328832  89.001957  -4.530501  2.773052  -2.184438  0.744427  22.009393  62.268758  30.189597  24.642594  20.204782  16.591424  -43.915381  102.351257  -1.87774  -18.039541  -7.164224  1.103392  -1.709412  -5.369966  0.847729  -1.26929  
0.0  89.887642  0.0  3.720272  -15.13655  -97.448747  16.395393  -12.033604  2.746118  -2.044628  5.106368  24.421526  5.602136  2.041406  2.705706  -0.440986  12.998681  -5.87437  0.010978  5.42792  15.984296  3.831376  0.475613  0.52151  0.711499  0.20938  0.60566  1.949956  0.554406  1.661541  1.949956  0.554406  1.661541  -3.65443  23.963767  5.682315  140.389833  37.535534  -169.849961  -10.714648  -6.790557  25.196641  88.949794  -4.718419  2.62524  -2.284792  0.824422  21.990905  63.425022  29.919961  25.267437  19.077539  16.841246  -44.860636  102.22742  -1.899594  -18.391051  -7.208685  1.056115  -1.837423  -5.403244  0.813903  -1.365794  
0.0  89.887642  0.0  3.77231  -15.520154  -97.645563  16.600523  -12.069605  3.048897  -1.816968  5.014888  24.383594  5.593748  2.02576  2.689032  -0.18213  13.011072  -5.844046  0.115652  5.390945  16.140906  3.823385  0.473757  0.53534  0.72399  0.217647  0.633708  1.984548  0.575838  1.738555  1.984548  0.575838  1.738555  -3.316822  23.72812  5.624952  140.48556  36.875447  -170.132941  -11.290918  -7.070751  26.207301  88.893706  -4.910015  2.509091  -2.193513  0.987759  22.073131  64.427442  29.707898  25.710604  17.886081  16.788767  -46.009338  102.015659  -2.182385  -18.715153  -7.063818  1.041875  -1.878231  -5.294575  0.803253  -1.396811  
0.0  89.887642  0.0  3.878461  -15.873806  -97.84989  16.509549  -11.970354  3.269227  -1.473148  4.87281  24.399064  5.694718  2.041289  2.737052  -0.017216  13.114004  -5.856159  0.401507  5.334779  16.362278  3.74855  0.430215  0.545783  0.731896  0.225773  0.658413  2.006592  0.597087  1.806394  2.006592  0.597087  1.806394  -2.944395  23.531142  5.61145  140.665234  36.380505  -170.405139  -11.228716  -7.213371  27.46716  88.287207  -4.707816  2.237986  -2.239189  1.243973  22.138917  65.669692  29.445309  26.225627  16.551638  16.556406  -47.460228  101.379308  -2.707225  -19.151599  -6.950271  1.050375  -1.899465  -5.209352  0.809517  -1.412829  
0.0  89.887642  0.0  3.986089  -16.266899  -98.083457  16.610356  -11.945362  3.657936  -1.208698  4.797952  24.32206  5.740526  2.024761  2.737708  0.127389  13.20082  -5.870621  0.494703  5.291246  16.579995  3.753784  0.421034  0.558175  0.747069  0.233002  0.691667  2.048565  0.615394  1.897643  2.048565  0.615395  1.897643  -2.603121  23.32431  5.60035  140.951978  36.107801  -170.470378  -11.654176  -7.149665  28.201147  88.281185  -4.784818  2.261106  -2.036176  1.498854  22.290459  66.123701  29.288445  26.276261  15.487337  15.727832  -48.977665  100.854273  -3.236823  -19.435531  -6.782295  1.064405  -1.890078  -5.083342  0.819409  -1.405909  
0.0  89.887642  0.0  4.129157  -16.599882  -98.269196  16.381008  -11.816398  3.872552  -0.835866  4.719509  24.32535  5.850283  2.04694  2.781975  0.037347  13.401379  -6.030074  0.663675  5.2122  16.849591  3.767073  0.379309  0.580278  0.744332  0.245874  0.714786  2.041681  0.649936  1.961208  2.041681  0.649936  1.961208  -2.271131  23.123125  5.613591  141.86677  35.9806  -170.242279  -11.451422  -6.963803  28.921397  88.217293  -4.723851  2.241472  -1.676956  1.726753  22.492043  66.350597  29.155489  26.254678  14.416461  14.169266  -50.783205  100.904573  -3.871189  -19.449847  -6.595408  1.069876  -1.857776  -4.943214  0.822579  -1.381934  
0.0  89.887642  0.0  4.276024  -17.005201  -98.474996  16.396178  -11.716861  4.211599  -0.512796  4.669419  24.302607  5.889741  2.036727  2.778949  -0.016249  13.574935  -6.198021  0.818754  5.13424  17.170801  3.828385  0.3618  0.605326  0.765285  0.263885  0.752994  2.099884  0.697314  2.066418  2.099884  0.697314  2.066418  -1.98738  22.917149  5.639439  142.833943  35.97572  -169.922644  -11.3064  -6.745191  29.496079  88.341101  -4.660367  2.262675  -1.530268  1.907111  22.512849  66.495152  28.972849  26.110944  13.773827  13.090283  -52.549431  100.882374  -4.286234  -19.648814  -6.417801  1.049657  -1.856668  -4.81008  0.806855  -1.381619  
0.0  89.887642  0.0  4.448295  -17.332339  -98.632014  16.177323  -11.563934  4.372822  -0.264575  4.636555  24.286065  6.098161  2.097972  2.921414  -0.509905  13.866414  -6.656875  0.871761  5.049489  17.567709  4.200324  0.350071  0.684264  0.776062  0.281642  0.773001  2.130122  0.744857  2.121791  2.130122  0.744857  2.121791  -1.673945  22.779957  5.731005  143.326743  35.991593  -169.734472  -10.92427  -6.647403  30.202378  88.527911  -5.246367  2.379641  -1.315204  2.085271  22.612337  66.26845  28.84579  25.719455  13.557044  12.956185  -54.169701  100.850589  -4.381365  -20.094779  -6.237938  1.044502  -1.812819  -4.675275  0.801987  -1.349081  
0.0  89.887642  0.0  4.63365  -17.714451  -98.753758  16.1296  -11.371099  4.497395  0.178725  4.611037  24.473125  6.100654  2.067338  2.930555  -0.695894  14.14521  -7.082485  1.104743  4.891325  18.110205  4.248887  0.317966  0.728666  0.789843  0.310645  0.794598  2.168999  0.82296  2.181936  2.168999  0.82296  2.181936  -1.299676  22.614133  5.778637  143.678531  35.997029  -169.692196  -11.300058  -6.527757  30.680249  88.615387  -5.100294  2.417186  -1.262838  2.181498  22.522081  66.625782  28.644599  25.617279  13.274703  13.069274  -55.712814  101.076527  -4.586316  -20.198948  -6.028339  0.99773  -1.82048  -4.518216  0.766351  -1.355639  
